<?xml version="1.0" encoding="UTF-8" standalone="no"?>
<!DOCTYPE svg PUBLIC "-//W3C//DTD SVG 20010904//EN"
"http://www.w3.org/TR/2001/REC-SVG-20010904/DTD/svg10.dtd">
<!-- Created with Inkscape (http://www.inkscape.org/) -->
<svg
   width="210mm"
   height="297mm"
   id="svg1"
   sodipodi:version="0.32"
   inkscape:version="0.40"
   sodipodi:docbase="/home/pa/Desktop/tiramisu/tw-0.0.2-beta-1/functions/tema/iconos"
   sodipodi:docname="smile.svg"
   xmlns="http://www.w3.org/2000/svg"
   xmlns:cc="http://web.resource.org/cc/"
   xmlns:inkscape="http://www.inkscape.org/namespaces/inkscape"
   xmlns:sodipodi="http://sodipodi.sourceforge.net/DTD/sodipodi-0.dtd"
   xmlns:rdf="http://www.w3.org/1999/02/22-rdf-syntax-ns#"
   xmlns:dc="http://purl.org/dc/elements/1.1/"
   xmlns:xlink="http://www.w3.org/1999/xlink">
  <defs
     id="defs3">
    <linearGradient
       id="linearGradient2447">
      <stop
         style="stop-color:#a8a823;stop-opacity:1.0000000;"
         offset="0.0000000"
         id="stop2448" />
      <stop
         style="stop-color:#feff00;stop-opacity:0.91869920;"
         offset="0.50000000"
         id="stop2451" />
      <stop
         style="stop-color:#f9fa12;stop-opacity:0.0000000;"
         offset="1.0000000"
         id="stop2449" />
    </linearGradient>
    <linearGradient
       inkscape:collect="always"
       xlink:href="#linearGradient2447"
       id="linearGradient2450"
       gradientTransform="scale(1.036991,0.964328)"
       x1="378.45987"
       y1="839.66815"
       x2="397.84082"
       y2="-288.66837"
       gradientUnits="userSpaceOnUse" />
  </defs>
  <sodipodi:namedview
     id="base"
     pagecolor="#ffffff"
     bordercolor="#666666"
     borderopacity="1.0"
     inkscape:pageopacity="0.0"
     inkscape:pageshadow="2"
     inkscape:zoom="0.86831672"
     inkscape:cx="126.51667"
     inkscape:cy="499.91997"
     inkscape:current-layer="layer1"
     inkscape:window-width="1280"
     inkscape:window-height="733"
     inkscape:window-x="0"
     inkscape:window-y="25" />
  <metadata
     id="metadata4">
    <rdf:RDF
       id="RDF5">
      <cc:Work
         rdf:about=""
         id="Work6">
        <dc:format
           id="format7">image/svg+xml</dc:format>
        <dc:type
           id="type9"
           rdf:resource="http://purl.org/dc/dcmitype/StillImage" />
      </cc:Work>
    </rdf:RDF>
  </metadata>
  <g
     inkscape:label="Layer 1"
     inkscape:groupmode="layer"
     id="layer1">
    <path
       sodipodi:type="arc"
       style="fill:url(#linearGradient2450);fill-opacity:1.0;stroke:#c0cd1e;stroke-width:9.2875000;stroke-linecap:butt;stroke-linejoin:miter;stroke-opacity:1.0000000;stroke-miterlimit:4.0000000;stroke-dasharray:none;opacity:1.0000000;fill-rule:nonzero;"
       id="path1062"
       sodipodi:cx="404.51831"
       sodipodi:cy="426.87036"
       sodipodi:rx="274.95728"
       sodipodi:ry="255.52312"
       d="M 679.47559 426.87036 A 274.95728 255.52312 0 1 1  129.56104,426.87036 A 274.95728 255.52312 0 1 1  679.47559 426.87036 z" />
    <path
       style="fill:#ffffff;fill-opacity:1.0000000;fill-rule:evenodd;stroke:#000000;stroke-width:1.0000000pt;stroke-linecap:butt;stroke-linejoin:miter;stroke-opacity:1.0000000;"
       d="M 188.58326,406.71643 C 187.19002,407.88916 186.04409,413.31829 184.98435,416.07362 C 183.77371,419.22126 184.58769,422.91932 184.26456,426.15058 C 183.92689,429.52734 182.72664,432.40063 182.10521,435.50777 C 181.53005,438.38357 180.90198,442.50159 180.66564,444.86495 C 180.26950,448.82639 182.65006,450.32209 183.54478,452.78257 C 183.96065,453.92622 190.06480,455.15349 191.46240,455.66171 C 194.58293,456.79645 197.33786,457.26867 200.09980,457.82106 C 203.38998,458.47909 207.52871,457.82106 210.89655,457.82106 C 213.63547,457.82106 218.03471,459.03872 220.25373,459.26062 C 223.24273,459.55952 228.29956,460.42510 231.05049,460.70019 C 234.32241,461.02738 238.86303,461.19353 241.12745,461.41997 C 244.39937,461.74717 248.94000,461.91331 251.20442,462.13976 C 255.45037,462.56435 258.24700,462.48412 262.00117,462.85954 C 266.31919,463.29134 269.91417,463.21897 273.51771,463.57932 C 275.04637,463.73219 275.43713,465.97860 276.39684,467.17824 C 278.22978,469.46941 283.92251,464.44163 284.31446,464.29911 C 287.28033,463.22061 290.97997,463.57932 294.39143,463.57932 C 297.99035,463.57932 301.58926,463.57932 305.18818,463.57932 C 308.13835,463.57932 311.96622,464.76098 314.54537,465.01889 C 317.16484,465.28084 321.00936,465.73867 324.62233,465.73867 C 328.41850,465.73867 331.63226,466.56483 334.69930,467.17824 C 338.66827,467.97204 342.17182,468.25017 346.21584,468.61781 C 350.27814,468.98711 352.66160,468.97447 356.29281,469.33759 C 359.80923,469.68923 363.55238,469.33759 367.08956,469.33759 C 370.68847,469.33759 374.28739,469.33759 377.88631,469.33759 C 381.96508,469.33759 386.04385,469.33759 390.12263,469.33759 C 393.72154,469.33759 397.32046,469.33759 400.91938,469.33759 C 404.94593,469.33759 407.00476,469.65822 410.99635,470.05738 C 415.02467,470.46021 417.05056,470.37488 421.07332,470.77716 C 424.67751,471.13758 427.12743,471.09466 431.15028,471.49694 C 435.06425,471.88834 437.92609,471.88661 441.22725,472.21673 C 444.74368,472.56837 448.48683,472.21673 452.02400,472.21673 C 456.16052,472.21673 458.22659,472.54907 462.10097,472.93651 C 465.85590,473.31200 469.84355,472.93651 473.61751,472.93651 C 477.21642,472.93651 480.81534,472.93651 484.41426,472.93651 C 488.45209,472.93651 491.12728,472.55312 494.49123,472.21673 C 497.11071,471.95478 500.95522,471.49694 504.56820,471.49694 C 508.05616,471.49694 510.73516,471.16816 514.64516,470.77716 C 518.16159,470.42552 521.90474,470.77716 525.44192,470.77716 C 529.97714,470.77716 531.59330,471.75883 535.51888,472.93651 C 538.56774,473.85117 542.12216,473.65629 545.59585,473.65629 C 548.02072,473.65629 551.57841,472.55419 554.95304,472.21673 C 558.08357,471.90367 562.95834,471.70411 565.03000,471.49694 C 568.54643,471.14530 572.28958,471.49694 575.82676,471.49694 C 578.25641,471.49694 582.43283,470.77716 585.90372,470.77716 C 589.07386,470.77716 591.84144,469.67954 595.26091,469.33759 C 598.24017,469.03967 601.50936,468.61781 605.33788,468.61781 C 608.13164,468.61781 612.13245,467.89802 615.41485,467.89802 C 618.26438,467.89802 621.76040,467.17824 625.49181,467.17824 C 629.85836,467.17824 631.88816,465.90714 634.84900,465.01889 C 637.86019,464.11553 638.83419,461.53185 640.60727,459.98041 C 642.48209,458.33994 641.80454,453.04614 642.04683,450.62322 C 642.28871,448.20450 640.47636,444.93023 639.88748,441.98582 C 639.13137,438.20527 639.51281,435.35993 639.16770,431.90885 C 638.76487,427.88053 638.85019,425.85464 638.44792,421.83188 C 638.14372,418.78992 635.24726,416.49746 634.12922,414.63405 C 632.14081,411.32005 631.10779,412.24454 626.21160,411.75492 C 625.60620,411.69438 620.52069,415.54886 619.73355,416.07362 C 617.05708,417.85793 614.81476,418.53301 612.53571,419.67253 C 609.75822,421.06128 607.33073,420.69688 603.17853,421.11210 C 600.52460,421.37749 595.83667,422.35014 593.82134,422.55167 C 589.95659,422.93814 587.08823,423.46642 584.46416,423.99123 C 581.45984,424.59210 578.82401,425.25141 575.82676,426.15058 C 572.81596,427.05382 568.87503,427.10906 566.46957,427.59015 C 563.34734,428.21460 559.68197,428.51580 557.11239,429.02972 C 553.26123,429.79995 551.11618,429.79709 547.75520,430.46929 C 544.45982,431.12836 541.60525,430.79637 537.67823,431.18907 C 533.64991,431.59190 531.62402,431.50658 527.60127,431.90885 C 524.26701,432.24228 521.53093,432.62864 517.52430,432.62864 C 513.92538,432.62864 510.32646,432.62864 506.72755,432.62864 C 503.77737,432.62864 499.94951,433.81029 497.37036,434.06820 C 494.26298,434.37894 491.63093,436.07795 488.73296,436.94734 C 485.76141,437.83880 481.06554,436.94734 477.93621,436.94734 C 474.12978,436.94734 471.86156,437.26689 467.85924,437.66712 C 464.91157,437.96189 461.65415,436.54276 458.50205,436.22755 C 455.16780,435.89413 452.43171,435.50777 448.42509,435.50777 C 445.56993,435.50777 442.85151,436.74797 439.78769,437.66712 C 436.73883,438.58178 433.18441,438.38690 429.71072,438.38690 C 426.11180,438.38690 422.51288,438.38690 418.91397,438.38690 C 415.04937,438.38690 411.85790,438.80460 408.83700,439.10669 C 405.32057,439.45833 401.57742,439.10669 398.04025,439.10669 C 394.55228,439.10669 391.87328,438.77790 387.96328,438.38690 C 384.44685,438.03526 380.70370,438.38690 377.16653,438.38690 C 373.56761,438.38690 369.96869,438.38690 366.36977,438.38690 C 362.92237,438.38690 358.66303,438.86966 356.29281,439.10669 C 352.82996,439.45297 348.57185,438.62250 346.21584,438.38690 C 342.94392,438.05971 338.40329,437.89356 336.13887,437.66712 C 332.89267,437.34250 330.20091,436.56948 326.78168,436.22755 C 323.44743,435.89413 320.71134,435.50777 316.70472,435.50777 C 313.05266,435.50777 309.29954,435.05517 306.62775,434.78799 C 303.35583,434.46079 298.81521,434.29465 296.55078,434.06820 C 292.50444,433.66357 290.09581,433.71062 286.47381,433.34842 C 282.68590,432.96963 279.25652,432.98658 275.67706,432.62864 C 271.64874,432.22580 269.62285,432.31113 265.60009,431.90885 C 262.99594,431.64844 258.62540,430.70753 256.24291,430.46929 C 252.95778,430.14077 250.47099,429.16958 247.60551,428.30994 C 244.56197,427.39687 242.04617,427.25015 238.24832,426.87037 C 235.37191,426.58273 232.51635,425.29210 229.61092,424.71102 C 226.87313,424.16346 224.18359,422.57897 221.69330,421.83188 C 218.70635,420.93580 216.93429,420.10133 213.77568,418.95275 C 210.46340,417.74828 208.68499,417.50274 205.13828,416.79340 C 202.19498,416.20474 199.39503,414.56658 197.22066,413.91427 C 193.88956,412.91493 192.33633,412.13814 189.30305,411.03513 C 186.29413,409.94098 186.75019,410.71603 183.54478,410.31535"
       id="path9940" />
    <flowRoot
       id="flowRoot1754">
      <flowRegion
         id="flowRegion1755">
        <path
           style="fill:#000000;fill-opacity:1.0000000;fill-rule:nonzero;stroke:none;stroke-width:1.0000000pt;stroke-linecap:butt;stroke-linejoin:miter;stroke-opacity:1.0000000"
           id="use1756"
           d="M -112.96908,497.11975 C -87.497274,482.83448 -110.56011,497.44014 -115.78056,500.82159 C -150.58986,520.74593 -172.73199,548.50321 -184.48201,581.80171 C -188.04405,592.32056 -189.83344,603.40269 -191.15881,614.60028 L -201.09885,618.72930 C -199.54368,607.43475 -197.58327,596.24287 -193.98220,585.58028 C -182.47452,552.81123 -161.67337,524.86262 -127.73085,504.91975 C -119.66316,499.54603 -112.25387,493.42599 -102.65818,489.81478 L -112.96908,497.11975 z " />
      </flowRegion>
      <flowDiv
         id="flowDiv1757">
        <flowPara
           id="flowPara1758">This is flowed text. Currently, you can only edit it by using the XML editor. You can paste style (Ctrl+Shift+V) from regular text objects to it.</flowPara>
      </flowDiv>
    </flowRoot>
    <path
       sodipodi:type="arc"
       style="fill:#ffffff;fill-opacity:1.0000000;stroke:#ffffff;stroke-width:6.5451255;stroke-linecap:butt;stroke-linejoin:miter;stroke-opacity:1.0000000;stroke-miterlimit:4.0000000;stroke-dasharray:none;opacity:1.0000000;"
       id="path1063"
       sodipodi:cx="316.70471"
       sodipodi:cy="326.10068"
       sodipodi:rx="59.022243"
       sodipodi:ry="55.423325"
       d="M 375.72696 326.10068 A 59.022243 55.423325 0 1 1  257.68247,326.10068 A 59.022243 55.423325 0 1 1  375.72696 326.10068 z"
       transform="matrix(0.727531,0.000000,0.000000,0.735411,111.7876,72.89247)" />
    <path
       sodipodi:type="arc"
       style="fill:#ffffff;fill-opacity:1.0000000;stroke:#ffffff;stroke-width:6.5451254;stroke-linecap:butt;stroke-linejoin:miter;stroke-opacity:1.0000000;stroke-miterlimit:4.0000000;stroke-dasharray:none;"
       id="path1064"
       sodipodi:cx="316.70471"
       sodipodi:cy="326.10068"
       sodipodi:rx="59.022243"
       sodipodi:ry="55.423325"
       d="M 375.72696 326.10068 A 59.022243 55.423325 0 1 1  257.68247,326.10068 A 59.022243 55.423325 0 1 1  375.72696 326.10068 z"
       transform="matrix(0.727531,0.000000,0.000000,0.735411,247.9404,74.48053)" />
    <path
       style="fill:#880808;fill-opacity:1.0000000;fill-rule:evenodd;stroke:#000000;stroke-width:1.0000000pt;stroke-linecap:butt;stroke-linejoin:miter;stroke-opacity:1.0000000;"
       d="M 187.14370,461.41997 C 186.83176,463.39074 185.13538,467.94699 184.26456,470.77716 C 183.31214,473.87252 184.78047,478.81538 184.98435,480.85413 C 185.35219,484.53254 186.21748,486.40414 187.14370,489.49153 C 187.95878,492.20849 189.07400,494.79985 190.02283,497.40915 C 191.08388,500.32704 191.00514,504.48006 191.46240,506.76633 C 192.08271,509.86792 193.31584,511.86330 194.34153,514.68395 C 195.33317,517.41097 196.82202,519.64492 197.94045,521.88178 C 199.32121,524.64331 200.43883,526.87855 201.53936,529.07962 C 202.83619,531.67326 203.59188,534.72404 204.41850,536.99724 C 205.51985,540.02595 206.31353,542.35428 207.29763,545.63464 C 208.19746,548.63406 209.38606,550.83338 210.89655,553.55225 C 212.56651,556.55818 213.11890,557.99696 214.49547,560.75009 C 215.69754,563.15423 218.06897,564.83410 219.53395,566.50836 C 221.92626,569.24242 223.29295,570.60724 226.01200,572.98641 C 228.98162,575.58482 230.69245,576.26272 233.20984,578.02489 C 235.93921,579.93545 236.55877,582.33066 238.24832,584.50294 C 240.05351,586.82390 241.60944,588.82438 243.28680,590.98099 C 245.06437,593.26644 247.70423,593.92595 249.76486,595.29969 C 252.54353,597.15214 255.04017,598.87023 257.68247,600.33818 C 260.23041,601.75370 262.08969,603.27632 264.16052,604.65688 C 266.68495,606.33983 268.63277,607.63838 270.63858,608.97558 C 273.05839,610.58879 275.14294,611.22776 277.83641,612.57450 C 280.44996,613.88127 283.67081,615.73585 285.75403,616.89320 C 288.66106,618.50821 290.34650,619.18944 292.95186,620.49212 C 295.92675,621.97956 297.39310,622.71273 300.14970,624.09103 C 302.82574,625.42905 305.07936,626.55587 307.34753,627.68995 C 310.40393,629.21815 313.35067,630.23516 315.98493,631.28887 C 319.29729,632.61381 322.61938,633.47950 326.06190,634.16800 C 329.17931,634.79148 332.15172,635.81783 334.69930,636.32735 C 337.47806,636.88310 341.59629,637.99466 344.05649,638.48670 C 347.24383,639.12417 350.64434,639.81525 353.41367,640.64605 C 356.91715,641.69709 360.00750,641.01752 363.49064,641.36584 C 366.89969,641.70674 369.44657,642.46528 372.84782,642.80540 C 375.46730,643.06735 379.31182,643.52519 382.92479,643.52519 C 385.87497,643.52519 389.70283,644.70684 392.28198,644.96475 C 395.95189,645.33174 399.69050,645.87063 402.35895,646.40432 C 405.64913,647.06236 409.78786,646.40432 413.15570,646.40432 C 415.58535,646.40432 419.76177,647.12410 423.23267,647.12410 C 426.83158,647.12410 430.43050,647.12410 434.02942,647.12410 C 436.71088,647.12410 439.54972,645.58817 442.66682,644.96475 C 445.86798,644.32452 449.12900,643.45797 451.30422,642.80540 C 454.67325,641.79469 457.48442,642.47530 461.38119,642.08562 C 464.68338,641.75540 467.82790,640.79941 470.73837,639.92627 C 473.73238,639.02807 476.82072,638.81419 480.09556,638.48670 C 484.06365,638.08989 485.78397,637.21205 488.73296,636.32735 C 491.78884,635.41059 493.78887,634.48884 496.65058,633.44822 C 499.43200,632.43679 502.44077,631.13853 505.28798,630.56908 C 507.59047,630.10858 512.62912,628.81294 514.64516,628.40973 C 516.70753,627.99726 520.43346,625.99377 522.56278,624.81082 C 525.43169,623.21698 527.89957,622.70593 530.48040,621.93168 C 533.15669,621.12879 535.17840,618.79968 536.95845,617.61298 C 539.54221,615.89048 541.33356,614.69624 543.43650,613.29428 C 545.64013,611.82520 548.92305,611.29917 551.35412,610.41515 C 553.76856,609.53717 555.53350,606.75818 557.11239,605.37666 C 559.44100,603.33913 560.86325,602.09465 562.87065,600.33818 C 565.22682,598.27653 566.93191,597.11229 569.34871,595.29969 C 571.65903,593.56695 573.06908,592.04437 575.10697,590.26121 C 577.47796,588.18660 578.86010,586.97722 580.86524,585.22273 C 583.23067,583.15297 584.99328,580.57868 586.62351,578.74468 C 588.61342,576.50603 590.68942,574.67877 592.38178,572.98641 C 594.67998,570.68821 596.02271,569.80059 598.14004,567.94792 C 599.37562,566.86680 601.58930,562.77404 602.45874,561.46987 C 603.98167,559.18549 604.87329,556.64078 606.05766,554.27204 C 607.57386,551.23964 608.21629,549.95513 609.65658,546.35442 C 610.41886,544.44871 612.82662,541.59936 613.97528,539.87637 C 615.64644,537.36962 617.23863,535.68063 619.01376,533.39832 C 620.91524,530.95356 621.79570,529.22541 623.33246,526.92027 C 624.55944,525.07981 626.18365,520.15219 626.93138,518.28287 C 628.04901,515.48880 628.93144,512.78269 629.81051,510.36525 C 630.93348,507.27710 631.75936,505.00594 632.68965,502.44763 C 633.65659,499.78854 634.72434,496.85222 635.56878,494.53001 C 636.87673,490.93317 637.03685,487.18965 637.72813,483.73326 C 638.48605,479.94367 638.74144,477.91893 639.16770,473.65629 C 639.54634,469.86989 637.18774,467.26684 636.28857,465.01889 C 635.56311,463.20524 626.99779,466.44518 626.93138,466.45846 C 624.05558,467.03362 619.93756,467.66169 617.57420,467.89802 C 614.86753,468.16869 611.20431,469.60387 608.93680,470.05738 C 605.64661,470.71541 601.50788,470.05738 598.14004,470.05738 C 594.70586,470.05738 592.55252,470.43434 588.78286,470.05738 C 584.91924,469.67101 582.77922,469.74492 578.70589,469.33759 C 575.91420,469.05842 572.11313,469.70895 568.62892,470.05738 C 565.02473,470.41779 562.57480,470.37487 558.55195,470.77716 C 554.63799,471.16856 551.77614,471.16683 548.47499,471.49694 C 544.82549,471.86189 541.04087,471.04144 538.39802,470.77716 C 534.53440,470.39080 532.39438,470.46471 528.32105,470.05738 C 524.80462,469.70573 521.06147,470.05738 517.52430,470.05738 C 513.50034,470.05738 510.47263,471.03584 508.16711,471.49694 C 505.18652,472.09306 501.68062,473.08215 498.80993,473.65629 C 495.18182,474.38191 491.31192,473.26638 488.01318,472.93651 C 484.49675,472.58487 480.75360,472.93651 477.21642,472.93651 C 473.91419,472.93651 469.99287,472.21673 466.41967,472.21673 C 462.93171,472.21673 460.25271,471.88794 456.34270,471.49694 C 452.82628,471.14530 449.08313,471.49694 445.54595,471.49694 C 441.50812,471.49694 438.83293,471.88033 435.46898,472.21673 C 432.08031,472.55559 428.90708,473.09724 426.11180,473.65629 C 422.81641,474.31537 419.96185,473.98337 416.03483,474.37608 C 413.90638,474.58892 409.20331,473.65629 405.95786,473.65629 C 402.35895,473.65629 398.76003,473.65629 395.16111,473.65629 C 391.86016,473.65629 388.87781,472.83150 385.80393,472.21673 C 382.51374,471.55869 378.37501,472.21673 375.00718,472.21673 C 371.40826,472.21673 367.80934,472.21673 364.21042,472.21673 C 360.07391,472.21673 358.00784,471.88438 354.13346,471.49694 C 350.10513,471.09411 348.07924,471.17943 344.05649,470.77716 C 338.92203,470.26371 334.14242,469.13795 328.94103,468.61781 C 326.32156,468.35586 322.47704,467.89802 318.86407,467.89802 C 316.12452,467.89802 312.57449,466.76522 309.50688,466.45846 C 305.64327,466.07210 303.50324,466.14601 299.42991,465.73867 C 295.38357,465.33404 292.97494,465.38109 289.35295,465.01889 C 285.83652,464.66725 282.09337,465.01889 278.55619,465.01889 C 274.95728,465.01889 271.35836,465.01889 267.75944,465.01889 C 263.62293,465.01889 261.55686,464.68655 257.68247,464.29911 C 254.60515,463.99138 249.15362,463.23029 245.44615,462.85954 C 241.13937,462.42886 237.38579,462.55735 233.20984,462.13976 C 229.83725,461.80250 225.08523,461.00855 221.69330,460.70019 C 217.75251,460.34194 214.80493,459.89834 211.61633,459.26062 C 207.86882,458.51112 205.55356,458.94226 201.53936,458.54084 C 198.02294,458.18920 194.27979,458.54084 190.74261,458.54084 C 179.17815,458.54084 185.86502,462.53882 181.38543,466.45846 C 179.36666,468.22488 183.78471,471.25701 184.98435,473.65629"
       id="path10562" />
    <path
       style="fill:#3e3e3e;fill-opacity:1.0000000;fill-rule:nonzero;stroke:none;stroke-width:1.0000000pt;stroke-linecap:butt;stroke-linejoin:miter;stroke-opacity:1.0000000;"
       d="M 190.50011,402.43980 L 176.84386,409.34605 C 176.78220,412.31084 176.48404,415.28496 176.18761,418.25230 C 175.04799,431.32025 175.19622,444.32468 176.12511,457.22105 L 173.78136,458.12730 C 174.57483,458.29987 175.41603,458.40373 176.21886,458.56480 C 176.66821,464.43665 177.21759,470.28877 177.96886,476.09605 C 181.79089,503.45319 189.90700,529.79921 203.09386,553.15855 C 210.91596,566.39800 220.82631,577.82784 231.84386,588.12730 C 231.75539,588.39127 231.65079,588.64440 231.56261,588.90855 L 232.40636,588.65855 C 241.64198,597.22826 251.62784,605.01843 261.87511,612.25230 C 295.93371,636.87578 337.28860,645.90764 379.28136,650.12730 C 432.84220,655.66544 487.11477,647.15928 536.81261,619.34605 C 585.37184,592.74729 621.90832,550.02610 638.84387,496.62730 C 641.91981,485.67984 644.16449,474.50318 645.43762,463.31480 C 645.43879,463.30448 645.43645,463.29387 645.43762,463.28355 C 647.30885,446.81456 646.99882,430.32597 643.65637,414.47105 C 642.87179,410.47739 641.58190,406.76305 639.40637,403.50230 L 626.46887,411.43980 C 626.63187,411.62290 626.69152,411.87460 626.84387,412.06480 C 612.78177,416.72249 598.19499,420.08698 583.50012,422.90855 C 555.76410,428.06854 527.58505,431.38842 499.34386,433.68980 C 466.94325,436.15228 434.42330,436.89820 401.90636,436.12730 C 371.58143,435.60582 341.19903,435.00955 310.96886,432.78355 C 284.70485,430.52462 258.54534,426.84325 233.34386,419.93980 C 220.66266,416.42358 208.11076,412.46173 196.31261,407.09605 C 195.43507,406.65260 192.54918,404.80033 192.56261,405.22105 L 190.00011,406.34605 C 190.16210,405.04487 190.35721,403.74221 190.50011,402.43980 z M 628.50012,414.68980 C 629.58452,416.75517 630.42753,418.95727 631.03137,421.31480 C 634.54219,435.14799 635.36240,449.64627 634.31262,464.18980 C 574.34914,473.58520 510.38831,469.21505 449.37511,470.09605 C 375.59688,468.52076 301.65371,465.35598 228.87511,457.37730 C 216.33530,455.84986 202.52047,453.99382 190.81261,451.62730 L 188.28136,452.59605 C 187.51686,440.36319 187.63140,428.02326 188.96886,415.65855 C 199.80001,419.84233 210.98400,423.36699 222.31261,426.40855 C 247.73942,433.23107 274.07930,436.91573 300.53136,439.18980 C 330.80578,441.42226 361.19245,442.05562 391.56261,442.56480 C 424.14795,443.31160 456.74439,442.51672 489.21886,440.12730 C 517.28617,437.90252 545.30279,434.76497 572.90636,429.81480 C 588.62162,426.91527 604.23266,423.43744 619.25012,418.47105 C 622.46095,417.48569 625.51213,416.12947 628.50012,414.68980 z M 188.93761,460.68980 C 197.43909,461.85425 206.13314,462.71900 214.59386,463.59605 C 252.47255,467.12567 290.59069,469.57941 328.78136,471.37730 C 324.71686,473.63037 320.78846,476.19865 316.75011,478.53355 C 285.41383,494.14226 262.31762,520.76848 245.28136,554.25230 C 242.03462,560.77986 239.26673,567.65894 236.65636,574.65855 C 228.43433,566.09151 220.97385,556.76661 214.81261,546.34605 C 201.62326,523.17575 193.34482,497.10267 189.81261,469.81480 C 189.45344,466.79120 189.21404,463.73380 188.93761,460.68980 z M 634.21887,465.25230 C 634.19918,465.50268 634.17720,465.75189 634.15637,466.00230 L 627.59387,467.56480 C 633.03969,465.64963 631.55118,466.16769 634.21887,465.25230 z M 634.03137,467.53355 C 632.96428,479.08815 630.79818,490.64295 627.68762,501.93980 C 619.27672,528.68984 605.65024,552.68523 588.09387,573.50230 C 587.67842,559.90802 581.34403,546.01885 572.43761,533.43980 C 559.62822,515.72640 543.71718,500.40668 527.31261,485.97105 C 523.28966,482.41283 519.18642,478.95631 515.06261,475.53355 C 550.57853,475.84601 586.08618,475.47898 620.68762,470.97105 C 625.88780,470.22619 629.95166,469.00141 634.03137,467.53355 z M 332.06261,471.50230 C 332.29169,471.51285 332.52102,471.52305 332.75011,471.53355 C 331.59936,472.06173 331.66580,471.98024 330.15636,472.68980 L 332.06261,471.50230 z M 335.12511,471.62730 C 369.52549,473.17959 403.96126,474.27955 438.40636,475.03355 C 461.20641,474.80712 484.33501,475.20915 507.46886,475.47105 L 506.68761,476.18980 C 512.57589,480.12294 518.09086,484.79416 523.56261,489.40855 C 540.19652,503.46907 556.05708,518.82960 568.68761,536.59605 C 577.45686,549.23738 583.59415,563.19602 583.59387,576.68980 C 583.58928,577.49537 583.41309,578.25108 583.34387,579.03355 C 572.24087,591.32962 559.73969,602.46885 545.96886,612.18980 C 496.52109,640.21305 442.37859,649.01588 388.93761,643.40855 C 347.34056,639.14971 306.45632,629.88404 272.84386,605.31480 C 262.16500,597.68763 251.84810,589.43314 242.34386,580.31480 C 245.61485,570.48044 249.12697,560.81290 253.59386,551.84605 C 270.94927,517.83119 295.05623,491.65622 327.06261,476.22105 C 328.69089,475.30959 332.07697,473.36406 335.12511,471.62730 z "
       id="path1077" />
    <path
       sodipodi:type="arc"
       style="fill:#000000;fill-opacity:1.0000000;stroke:#000000;stroke-width:4.7874999;stroke-linecap:butt;stroke-linejoin:miter;stroke-miterlimit:4.0000000;stroke-opacity:1.0000000"
       id="path1733"
       sodipodi:cx="-539.83759"
       sodipodi:cy="320.34241"
       sodipodi:rx="7.1978345"
       sodipodi:ry="7.9176178"
       d="M -532.63975 320.34241 A 7.1978345 7.9176178 0 1 1  -547.03542,320.34241 A 7.1978345 7.9176178 0 1 1  -532.63975 320.34241 z"
       transform="matrix(2.061353,0.000000,0.000000,1.688797,1466.929,-216.3320)" />
    <path
       sodipodi:type="arc"
       style="fill:#000000;fill-opacity:1.0000000;stroke:#000000;stroke-width:4.7874999;stroke-linecap:butt;stroke-linejoin:miter;stroke-miterlimit:4.0000000;stroke-opacity:1.0000000"
       id="path11805"
       sodipodi:cx="-539.83759"
       sodipodi:cy="320.34241"
       sodipodi:rx="7.1978345"
       sodipodi:ry="7.9176178"
       d="M -532.63975 320.34241 A 7.1978345 7.9176178 0 1 1  -547.03542,320.34241 A 7.1978345 7.9176178 0 1 1  -532.63975 320.34241 z"
       transform="matrix(2.061353,0.000000,0.000000,1.688797,1582.095,-214.1729)" />
  </g>
</svg>
