<?xml version="1.0" encoding="UTF-8" standalone="no"?>
<!-- Created with Inkscape (http://www.inkscape.org/) -->
<svg
   xmlns:dc="http://purl.org/dc/elements/1.1/"
   xmlns:cc="http://web.resource.org/cc/"
   xmlns:rdf="http://www.w3.org/1999/02/22-rdf-syntax-ns#"
   xmlns:svg="http://www.w3.org/2000/svg"
   xmlns="http://www.w3.org/2000/svg"
   xmlns:sodipodi="http://inkscape.sourceforge.net/DTD/sodipodi-0.dtd"
   xmlns:inkscape="http://www.inkscape.org/namespaces/inkscape"
   sodipodi:docname="smiles.svg"
   sodipodi:docbase="/home/pa/Desktop/tiramisu/tw-0.0.2-beta-2/tema/iconos"
   inkscape:version="0.41"
   sodipodi:version="0.32"
   id="svg2"
   height="297mm"
   width="210mm">
  <defs
     id="defs3" />
  <sodipodi:namedview
     inkscape:window-y="26"
     inkscape:window-x="0"
     inkscape:window-height="729"
     inkscape:window-width="1280"
     inkscape:current-layer="layer1"
     inkscape:document-units="px"
     inkscape:cy="701.91703"
     inkscape:cx="251.27333"
     inkscape:zoom="45.290189"
     inkscape:pageshadow="2"
     inkscape:pageopacity="0.0"
     borderopacity="1.0"
     bordercolor="#666666"
     pagecolor="#ffffff"
     id="base" />
  <metadata
     id="metadata4">
    <rdf:RDF
       id="RDF5">
      <cc:Work
         id="Work6"
         rdf:about="">
        <dc:format
           id="format7">image/svg+xml</dc:format>
        <dc:type
           rdf:resource="http://purl.org/dc/dcmitype/StillImage"
           id="type9" />
      </cc:Work>
    </rdf:RDF>
  </metadata>
  <g
     id="layer1"
     inkscape:groupmode="layer"
     inkscape:label="Layer 1">
    <path
       transform="matrix(1.167331,0.000000,0.000000,1.000000,-40.90329,0.000000)"
       d="M 249.98791 348.39075 A 2.7710195 3.0690973 0 1 1  244.44587,348.39075 A 2.7710195 3.0690973 0 1 1  249.98791 348.39075 z"
       sodipodi:ry="3.0690973"
       sodipodi:rx="2.7710195"
       sodipodi:cy="348.39075"
       sodipodi:cx="247.21689"
       id="path1291"
       style="fill:#fff000;fill-opacity:1.0000000;stroke:#c6cae4;stroke-width:0.0000000;stroke-linecap:butt;stroke-linejoin:round;stroke-miterlimit:4.0000000;stroke-opacity:1.0000000"
       sodipodi:type="arc" />
    <path
       transform="translate(4.460127,-0.750714)"
       d="M 242.32622 348.16995 A 0.43055683 0.41951689 0 1 1  241.46510,348.16995 A 0.43055683 0.41951689 0 1 1  242.32622 348.16995 z"
       sodipodi:ry="0.41951689"
       sodipodi:rx="0.43055683"
       sodipodi:cy="348.16995"
       sodipodi:cx="241.89566"
       id="path2052"
       style="fill:#000000;fill-opacity:1.0000000;stroke:#c6cae4;stroke-width:0.0000000;stroke-linecap:butt;stroke-linejoin:round;stroke-miterlimit:4.0000000;stroke-opacity:1.0000000"
       sodipodi:type="arc" />
    <path
       transform="translate(6.833704,-0.839047)"
       d="M 242.32622 348.16995 A 0.43055683 0.41951689 0 1 1  241.46510,348.16995 A 0.43055683 0.41951689 0 1 1  242.32622 348.16995 z"
       sodipodi:ry="0.41951689"
       sodipodi:rx="0.43055683"
       sodipodi:cy="348.16995"
       sodipodi:cx="241.89566"
       id="path2812"
       style="fill:#000000;fill-opacity:1.0000000;stroke:#c6cae4;stroke-width:0.0000000;stroke-linecap:butt;stroke-linejoin:round;stroke-miterlimit:4.0000000;stroke-opacity:1.0000000"
       sodipodi:type="arc" />
    <path
       sodipodi:nodetypes="ccccccccccccccccccccccc"
       d="M 245.59468,349.41888 C 245.70322,349.44515 245.67777,349.45338 245.74212,349.53770 C 245.84000,349.66592 245.94818,349.78579 246.05679,349.90491 C 246.17305,350.03156 246.29914,350.14845 246.43048,350.25914 C 246.54148,350.35459 246.66928,350.42417 246.80136,350.48519 C 246.95287,350.54681 247.11193,350.58641 247.27215,350.61744 C 247.45651,350.65284 247.64427,350.65559 247.83126,350.65181 C 248.04564,350.64528 248.25491,350.60008 248.45258,350.51820 C 248.70035,350.39270 248.92553,350.22627 249.14552,350.05781 C 249.31980,349.92395 249.47647,349.76958 249.60552,349.59174 C 249.66412,349.51045 249.71530,349.42436 249.76255,349.33615 L 249.96306,349.46666 C 249.90917,349.56311 249.85254,349.65814 249.78698,349.74729 C 249.64304,349.93990 249.49362,350.08659 249.30214,350.23227 C 249.06871,350.41265 248.80436,350.60922 248.53949,350.74039 C 248.31514,350.83123 248.07882,350.88381 247.83609,350.89058 C 247.63427,350.89478 247.43172,350.89078 247.23271,350.85307 C 247.05630,350.81916 246.92541,350.79759 246.75856,350.72998 C 246.60764,350.66307 246.41891,350.56020 246.29178,350.45387 C 246.15058,350.33815 246.01803,350.21223 245.89324,350.07897 C 245.78022,349.95552 245.66757,349.83138 245.56527,349.69878 C 245.52402,349.64547 245.27566,349.48519 245.44012,349.57059 L 245.59468,349.41888 z "
       id="path2818"
       style="fill:#000000;fill-opacity:1.0000000;fill-rule:nonzero;stroke:none;stroke-width:1.0000000pt;stroke-linecap:butt;stroke-linejoin:miter;stroke-opacity:1.0000000" />
    <path
       transform="matrix(1.167331,0.000000,0.000000,1.000000,-33.42934,0.220789)"
       d="M 249.98791 348.39075 A 2.7710195 3.0690973 0 1 1  244.44587,348.39075 A 2.7710195 3.0690973 0 1 1  249.98791 348.39075 z"
       sodipodi:ry="3.0690973"
       sodipodi:rx="2.7710195"
       sodipodi:cy="348.39075"
       sodipodi:cx="247.21689"
       id="path2820"
       style="fill:#fff000;fill-opacity:1.0000000;stroke:#c6cae4;stroke-width:0.0000000;stroke-linecap:butt;stroke-linejoin:round;stroke-miterlimit:4.0000000;stroke-opacity:1.0000000"
       sodipodi:type="arc" />
    <path
       transform="matrix(1.000000,0.000000,0.000000,1.026316,12.24319,-9.791656)"
       d="M 242.32622 348.16995 A 0.43055683 0.41951689 0 1 1  241.46510,348.16995 A 0.43055683 0.41951689 0 1 1  242.32622 348.16995 z"
       sodipodi:ry="0.41951689"
       sodipodi:rx="0.43055683"
       sodipodi:cy="348.16995"
       sodipodi:cx="241.89566"
       id="path2822"
       style="fill:#000000;fill-opacity:1.0000000;stroke:#c6cae4;stroke-width:0.0000000;stroke-linecap:butt;stroke-linejoin:round;stroke-miterlimit:4.0000000;stroke-opacity:1.0000000"
       sodipodi:type="arc" />
    <path
       transform="matrix(1.000000,0.000000,0.000000,1.026315,14.30765,-9.791688)"
       d="M 242.32622 348.16995 A 0.43055683 0.41951689 0 1 1  241.46510,348.16995 A 0.43055683 0.41951689 0 1 1  242.32622 348.16995 z"
       sodipodi:ry="0.41951689"
       sodipodi:rx="0.43055683"
       sodipodi:cy="348.16995"
       sodipodi:cx="241.89566"
       id="path2824"
       style="fill:#000000;fill-opacity:1.0000000;stroke:#c6cae4;stroke-width:0.0000000;stroke-linecap:butt;stroke-linejoin:round;stroke-miterlimit:4.0000000;stroke-opacity:1.0000000"
       sodipodi:type="arc" />
    <path
       sodipodi:nodetypes="ccccccccccccccccccccccc"
       d="M 253.09071,350.63871 C 253.19925,350.61763 253.17380,350.61103 253.23815,350.54336 C 253.33603,350.44048 253.44421,350.34429 253.55282,350.24871 C 253.66908,350.14708 253.79517,350.05329 253.92651,349.96447 C 254.03751,349.88787 254.16531,349.83205 254.29739,349.78308 C 254.44890,349.73363 254.60796,349.70186 254.76818,349.67696 C 254.95254,349.64855 255.14030,349.64635 255.32729,349.64938 C 255.54167,349.65462 255.75094,349.69089 255.94861,349.75659 C 256.19638,349.85730 256.42156,349.99084 256.64155,350.12602 C 256.81583,350.23343 256.97250,350.35730 257.10155,350.50000 C 257.16015,350.56523 257.21133,350.63431 257.25858,350.70509 L 257.45909,350.60037 C 257.40520,350.52297 257.34857,350.44672 257.28301,350.37519 C 257.13907,350.22063 256.98965,350.10292 256.79817,349.98603 C 256.56474,349.84129 256.30039,349.68355 256.03552,349.57830 C 255.81117,349.50541 255.57485,349.46322 255.33212,349.45779 C 255.13030,349.45442 254.92775,349.45763 254.72874,349.48789 C 254.55233,349.51510 254.42144,349.53241 254.25459,349.58665 C 254.10367,349.64034 253.91494,349.72289 253.78781,349.80821 C 253.64661,349.90107 253.51406,350.00211 253.38927,350.10904 C 253.27625,350.20810 253.16360,350.30771 253.06130,350.41411 C 253.02005,350.45689 252.77169,350.58550 252.93615,350.51697 L 253.09071,350.63871 z "
       id="path2826"
       style="fill:#000000;fill-opacity:1.0000000;fill-rule:nonzero;stroke:none;stroke-width:1.0000000pt;stroke-linecap:butt;stroke-linejoin:miter;stroke-opacity:1.0000000" />
    <path
       transform="matrix(1.167331,0.000000,0.000000,1.000000,-40.84816,7.131778)"
       d="M 249.98791 348.39075 A 2.7710195 3.0690973 0 1 1  244.44587,348.39075 A 2.7710195 3.0690973 0 1 1  249.98791 348.39075 z"
       sodipodi:ry="3.0690973"
       sodipodi:rx="2.7710195"
       sodipodi:cy="348.39075"
       sodipodi:cx="247.21689"
       id="path2830"
       style="fill:#fff000;fill-opacity:1.0000000;stroke:#c6cae4;stroke-width:0.0000000;stroke-linecap:butt;stroke-linejoin:round;stroke-miterlimit:4.0000000;stroke-opacity:1.0000000"
       sodipodi:type="arc" />
    <path
       id="path2862"
       d="M 245.10828,355.56669 L 250.27496,355.63292 L 249.89961,357.02395 L 248.95017,357.88507 L 247.71370,358.17211 L 246.56555,357.95131 L 245.77068,357.20059 L 245.10828,355.56669 z "
       style="fill:#ffffff;fill-opacity:1.0000000;fill-rule:evenodd;stroke:#000000;stroke-width:0.0000000;stroke-linecap:butt;stroke-linejoin:miter;stroke-miterlimit:4.0000000;stroke-opacity:1.0000000" />
    <path
       transform="matrix(1.000000,0.000000,0.000000,1.026316,5.177641,-3.035226)"
       d="M 242.32622 348.16995 A 0.43055683 0.41951689 0 1 1  241.46510,348.16995 A 0.43055683 0.41951689 0 1 1  242.32622 348.16995 z"
       sodipodi:ry="0.41951689"
       sodipodi:rx="0.43055683"
       sodipodi:cy="348.16995"
       sodipodi:cx="241.89566"
       id="path2832"
       style="fill:#000000;fill-opacity:1.0000000;stroke:#c6cae4;stroke-width:0.0000000;stroke-linecap:butt;stroke-linejoin:round;stroke-miterlimit:4.0000000;stroke-opacity:1.0000000"
       sodipodi:type="arc" />
    <path
       transform="matrix(1.000000,0.000000,0.000000,1.026315,6.557626,-3.035257)"
       d="M 242.32622 348.16995 A 0.43055683 0.41951689 0 1 1  241.46510,348.16995 A 0.43055683 0.41951689 0 1 1  242.32622 348.16995 z"
       sodipodi:ry="0.41951689"
       sodipodi:rx="0.43055683"
       sodipodi:cy="348.16995"
       sodipodi:cx="241.89566"
       id="path2834"
       style="fill:#000000;fill-opacity:1.0000000;stroke:#c6cae4;stroke-width:0.0000000;stroke-linecap:butt;stroke-linejoin:round;stroke-miterlimit:4.0000000;stroke-opacity:1.0000000"
       sodipodi:type="arc" />
    <path
       d="M 245.24725,355.37243 C 245.25213,355.48011 245.25701,355.58775 245.26581,355.69527 C 245.28699,355.94939 245.38689,356.18661 245.49275,356.41782 C 245.62758,356.71049 245.79737,356.98561 245.99934,357.24025 C 246.18342,357.48755 246.43806,357.65070 246.71762,357.78497 C 247.01653,357.92764 247.33675,357.98245 247.66724,357.99587 C 248.00667,358.00814 248.33102,357.92778 248.64446,357.81160 C 248.95461,357.69288 249.23148,357.51822 249.46564,357.29190 C 249.69193,357.04715 249.83964,356.75134 249.96077,356.44903 C 250.06559,356.17084 250.13255,355.88155 250.18779,355.59118 C 250.20464,355.50272 250.21703,355.41362 250.22827,355.32439 L 250.50461,355.38829 C 250.49155,355.48252 250.47781,355.57667 250.45953,355.67014 C 250.39965,355.97475 250.32746,356.27823 250.21447,356.56941 C 250.08182,356.90214 249.90973,357.22550 249.65751,357.49104 C 249.40064,357.74439 249.08398,357.93192 248.74291,358.06515 C 248.39797,358.19655 248.03572,358.27683 247.66220,358.26629 C 247.29586,358.25641 246.93841,358.18792 246.60695,358.03394 C 246.28979,357.88854 246.00310,357.69813 245.79217,357.42507 C 245.57620,357.15591 245.39292,356.86565 245.24859,356.55537 C 245.11854,356.27631 244.99950,355.98825 244.98193,355.67971 C 244.97654,355.60547 244.96513,355.39743 244.96917,355.43453 L 245.24725,355.37243 z "
       id="path2840"
       style="fill:#000000;fill-opacity:1.0000000;fill-rule:nonzero;stroke:none;stroke-width:1.0000000pt;stroke-linecap:butt;stroke-linejoin:miter;stroke-opacity:1.0000000" />
    <path
       d="M 250.39821,355.57388 C 250.48606,355.55790 250.30167,355.59813 250.27170,355.60489 C 250.10402,355.64575 249.93290,355.66922 249.76102,355.68765 C 249.49703,355.70879 249.23181,355.71505 248.96705,355.72289 C 248.69544,355.73138 248.42374,355.73630 248.15220,355.74620 C 247.90248,355.75206 247.65293,355.76133 247.40339,355.77202 C 247.14798,355.78259 246.89229,355.78326 246.63669,355.78486 C 246.43177,355.78544 246.22688,355.78323 246.02199,355.78111 C 245.87099,355.77905 245.72092,355.76448 245.57159,355.74460 C 245.44824,355.72757 245.32656,355.70204 245.20545,355.67468 C 245.16383,355.66515 245.12225,355.65546 245.08070,355.64568 L 245.13898,355.37938 C 245.18140,355.38937 245.22395,355.39900 245.26640,355.40892 C 245.37978,355.43476 245.49372,355.45887 245.60919,355.47512 C 245.74731,355.49374 245.88609,355.50762 246.02580,355.50962 C 246.22861,355.51189 246.43140,355.51419 246.63424,355.51370 C 246.88638,355.51225 247.13860,355.51173 247.39056,355.50125 C 247.64007,355.49051 247.88962,355.48114 248.13933,355.47542 C 248.41181,355.46559 248.68440,355.46064 248.95692,355.45215 C 249.21445,355.44458 249.47241,355.43820 249.72920,355.41808 C 249.88933,355.40080 250.04869,355.37888 250.20479,355.34024 C 250.26780,355.32589 250.32001,355.31479 250.37246,355.30244 L 250.39821,355.57388 z "
       id="path2848"
       style="fill:#000000;fill-opacity:1.0000000;fill-rule:nonzero;stroke:none;stroke-width:1.0000000pt;stroke-linecap:butt;stroke-linejoin:miter;stroke-opacity:1.0000000" />
    <path
       transform="matrix(1.167331,0.000000,0.000000,1.000000,-33.00982,7.175938)"
       d="M 249.98791 348.39075 A 2.7710195 3.0690973 0 1 1  244.44587,348.39075 A 2.7710195 3.0690973 0 1 1  249.98791 348.39075 z"
       sodipodi:ry="3.0690973"
       sodipodi:rx="2.7710195"
       sodipodi:cy="348.39075"
       sodipodi:cx="247.21689"
       id="path2850"
       style="fill:#fff000;fill-opacity:1.0000000;stroke:#c6cae4;stroke-width:0.0000000;stroke-linecap:butt;stroke-linejoin:round;stroke-miterlimit:4.0000000;stroke-opacity:1.0000000"
       sodipodi:type="arc" />
    <path
       transform="matrix(1.000000,0.000000,0.000000,1.026316,12.57438,-2.593629)"
       d="M 242.32622 348.16995 A 0.43055683 0.41951689 0 1 1  241.46510,348.16995 A 0.43055683 0.41951689 0 1 1  242.32622 348.16995 z"
       sodipodi:ry="0.41951689"
       sodipodi:rx="0.43055683"
       sodipodi:cy="348.16995"
       sodipodi:cx="241.89566"
       id="path2852"
       style="fill:#000000;fill-opacity:1.0000000;stroke:#c6cae4;stroke-width:0.0000000;stroke-linecap:butt;stroke-linejoin:round;stroke-miterlimit:4.0000000;stroke-opacity:1.0000000"
       sodipodi:type="arc" />
    <path
       transform="matrix(1.000000,0.000000,0.000000,1.026315,14.92588,-2.637820)"
       d="M 242.32622 348.16995 A 0.43055683 0.41951689 0 1 1  241.46510,348.16995 A 0.43055683 0.41951689 0 1 1  242.32622 348.16995 z"
       sodipodi:ry="0.41951689"
       sodipodi:rx="0.43055683"
       sodipodi:cy="348.16995"
       sodipodi:cx="241.89566"
       id="path2854"
       style="fill:#000000;fill-opacity:1.0000000;stroke:#c6cae4;stroke-width:0.0000000;stroke-linecap:butt;stroke-linejoin:round;stroke-miterlimit:4.0000000;stroke-opacity:1.0000000"
       sodipodi:type="arc" />
    <path
       d="M 253.15899,357.09471 C 253.17406,357.03473 253.20087,356.97796 253.22532,356.92117 C 253.27287,356.81957 253.33859,356.73009 253.41133,356.64584 C 253.49288,356.55047 253.59348,356.48095 253.70172,356.42063 C 253.81848,356.35803 253.94454,356.32281 254.07392,356.30018 C 254.21239,356.28176 254.34750,356.31324 254.47892,356.35413 C 254.60844,356.40413 254.71804,356.49018 254.82234,356.58026 C 254.90137,356.65456 254.97720,356.73219 255.05592,356.80681 C 255.11504,356.86530 255.18011,356.91672 255.24534,356.96789 C 255.30316,357.01337 255.37037,357.03532 255.43906,357.05698 C 255.51127,357.07585 255.58381,357.06961 255.65679,357.06293 C 255.72889,357.05112 255.79783,357.02787 255.86598,357.00244 C 255.93275,356.97347 255.99317,356.93224 256.05374,356.89218 C 256.13437,356.83876 256.21539,356.78646 256.29990,356.73949 C 256.40695,356.68330 256.51484,356.62877 256.62461,356.57822 C 256.74021,356.52887 256.85883,356.48958 256.98277,356.47042 C 257.09335,356.45774 257.18674,356.49830 257.28078,356.55040 C 257.35760,356.59858 257.41970,356.66470 257.48134,356.73047 C 257.53389,356.79132 257.58442,356.85398 257.63420,356.91715 C 257.67466,356.97623 257.72935,357.02062 257.78347,357.06593 C 257.83378,357.10548 257.89306,357.12638 257.95180,357.14880 L 257.88368,357.37806 C 257.80431,357.34952 257.72548,357.31949 257.65692,357.26855 C 257.58641,357.21284 257.51541,357.15669 257.46248,357.08257 C 257.41434,357.02143 257.36554,356.96077 257.31515,356.90152 C 257.26841,356.85110 257.22288,356.79884 257.16568,356.75991 C 257.11296,356.73007 257.06679,356.70198 257.00346,356.70900 C 256.90322,356.72920 256.80545,356.75893 256.71140,356.80083 C 256.60732,356.84931 256.50494,356.90141 256.40333,356.95499 C 256.32533,356.99968 256.24974,357.04807 256.17496,357.09809 C 256.10264,357.14513 256.03052,357.19342 255.95046,357.22632 C 255.86473,357.25810 255.77776,357.28654 255.68708,357.30048 C 255.58558,357.31070 255.48420,357.31569 255.38404,357.28996 C 255.29102,357.26223 255.19997,357.23097 255.12095,357.17190 C 255.04768,357.11620 254.97457,357.05995 254.90899,356.99483 C 254.82912,356.92131 254.75392,356.84296 254.67537,356.76804 C 254.59315,356.69511 254.50683,356.62476 254.40507,356.58156 C 254.30672,356.55127 254.20628,356.52417 254.10240,356.53775 C 253.99830,356.55812 253.89619,356.58517 253.80234,356.63733 C 253.71754,356.68725 253.63807,356.74190 253.57470,356.81935 C 253.51934,356.88805 253.46626,356.95856 253.43109,357.04058 C 253.42236,357.06185 253.37228,357.19019 253.39446,357.12853 L 253.15899,357.09471 z "
       id="path2860"
       style="fill:#000000;fill-opacity:1.0000000;fill-rule:nonzero;stroke:none;stroke-width:1.0000000pt;stroke-linecap:butt;stroke-linejoin:miter;stroke-opacity:1.0000000" />
  </g>
</svg>
